<?xml version="1.0" encoding="utf-8"?>
<!-- Uploaded to: SVG Repo, www.svgrepo.com, Generator: SVG Repo Mixer Tools -->
<svg fill="#000000" version="1.1" id="Layer_1" xmlns="http://www.w3.org/2000/svg" xmlns:xlink="http://www.w3.org/1999/xlink" 
	 width="800px" height="800px" viewBox="0 0 256 217" enable-background="new 0 0 256 217" xml:space="preserve">
<path d="M202.878,112.354c-28.218,0-51.175,22.939-51.175,51.135c0,28.189,22.957,51.122,51.175,51.122
	c28.189,0,51.122-22.933,51.122-51.122C254,135.294,231.067,112.354,202.878,112.354z M242.329,163.49
	c0,21.777-17.697,39.493-39.451,39.493c-21.783,0-39.504-17.716-39.504-39.493c0-21.785,17.721-39.508,39.504-39.508
	C224.632,123.983,242.329,141.705,242.329,163.49z M152.783,41.269c10.757,0,19.503-8.687,19.503-19.444
	c0-10.76-8.745-19.503-19.503-19.503c-10.76,0-19.503,8.742-19.503,19.503C133.279,32.583,142.021,41.269,152.783,41.269z
	 M190.777,88.609c11.68,0,11.68-15.247,0-15.247l-32.505,0.059l-20.91-32.588c0,0-4.545-7.537-13.173-7.537
	c0,0-7.135-0.919-12.254,4.864L70.74,79.436c-2.645,2.878-4.2,6.734-4.2,10.931c0,6.1,3.396,11.449,8.401,14.239l41.999,23.33
	v43.899c0,6.212,5.005,11.276,11.217,11.276c6.215,0,11.22-5.064,11.22-11.276v-54.831c0,0,1.496-8.742-8.457-13.517l-24.223-12.746
	l26.119-25.86L144.98,83.72c2.244,3.538,5.293,4.946,8.112,4.889L190.777,88.609L190.777,88.609z M53.118,112.423
	C24.932,112.423,2,135.356,2,163.544c0,28.196,22.932,51.135,51.118,51.135c28.219,0,51.178-22.939,51.178-51.135
	C104.295,135.356,81.337,112.423,53.118,112.423z M92.626,163.544c0,21.784-17.724,39.508-39.508,39.508
	c-21.754,0-39.451-17.724-39.451-39.508c0-21.776,17.697-39.493,39.451-39.493C74.902,124.051,92.626,141.767,92.626,163.544z
	 M52.545,168.795l-21.295,0.001l36.376-36.366l-13.875,25.875h21.294l-36.376,36.366L52.545,168.795z"/>
</svg>