<svg xmlns="http://www.w3.org/2000/svg" viewBox="0 0 32 40" fill="none" x="0px" y="0px"><path fill-rule="evenodd" clip-rule="evenodd" d="M26.7071 6.70711C27.0976 6.31658 27.0976 5.68342 26.7071 5.29289C26.3166 4.90237 25.6834 4.90237 25.2929 5.29289L21.4794 9.10641C21.4583 9.09587 21.4368 9.08599 21.4147 9.07681C19.8528 8.42652 18.0458 8 16 8C9.84715 8 5.91974 11.8397 4.20692 13.9773C3.24928 15.1725 3.25158 16.8307 4.20822 18.0243C5.10194 19.1394 6.5782 20.6949 8.64574 21.9401L5.29291 25.2929C4.90238 25.6834 4.90238 26.3166 5.29291 26.7071C5.68343 27.0976 6.3166 27.0976 6.70712 26.7071L26.7071 6.70711ZM10.1098 20.476L12.554 18.0318C12.2023 17.4363 12 16.7411 12 16C12 13.7909 13.7909 12 16 12C16.7411 12 17.4363 12.2022 18.0318 12.554L19.9335 10.6523C18.7664 10.2503 17.4564 10 16 10C10.7422 10 7.32785 13.2808 5.7677 15.2279C5.39689 15.6907 5.39684 16.3093 5.76885 16.7735C6.63148 17.8498 8.08211 19.3574 10.1098 20.476ZM16.5182 14.0676C16.3531 14.0235 16.1794 14 16 14C14.8954 14 14 14.8954 14 16C14 16.1794 14.0235 16.3531 14.0676 16.5182L16.5182 14.0676Z" fill="black"/><path d="M23.6153 11.3794C23.9581 10.9463 24.587 10.8731 25.02 11.2159C26.2347 12.1772 27.1578 13.1845 27.7923 13.9763C28.7491 15.1702 28.7505 16.8278 27.7931 18.0227C26.0803 20.1603 22.1529 24 16 24C14.8493 24 13.7727 23.865 12.7717 23.6303C12.234 23.5043 11.9003 22.9662 12.0264 22.4285C12.1525 21.8908 12.6906 21.5571 13.2283 21.6831C14.0837 21.8837 15.0071 22 16 22C21.2578 22 24.6722 18.7192 26.2323 16.7721C26.6034 16.309 26.6034 15.6909 26.2316 15.227C25.6687 14.5245 24.8501 13.6319 23.7789 12.7841C23.3458 12.4414 23.2726 11.8125 23.6153 11.3794Z" fill="black"/><path d="M19.1626 16.0572C19.6833 16.2412 19.9562 16.8125 19.7721 17.3332C19.3702 18.4705 18.4705 19.3702 17.3333 19.7721C16.8125 19.9562 16.2412 19.6833 16.0572 19.1625C15.8731 18.6418 16.1461 18.0705 16.6668 17.8865C17.2343 17.6859 17.6859 17.2343 17.8865 16.6668C18.0705 16.146 18.6418 15.8731 19.1626 16.0572Z" fill="black"/><text x="0" y="47" fill="#000000" font-size="5px" font-weight="bold" font-family="'Helvetica Neue', Helvetica, Arial-Unicode, Arial, Sans-serif">by Ferdinand Partahi Jaya Tambunan</text><text x="0" y="52" fill="#000000" font-size="5px" font-weight="bold" font-family="'Helvetica Neue', Helvetica, Arial-Unicode, Arial, Sans-serif">from the Noun Project</text></svg>