<svg xmlns="http://www.w3.org/2000/svg" viewBox="0 0 32 40" fill="none" x="0px" y="0px"><path d="M17 6C17 5.44772 16.5523 5 16 5C15.4477 5 15 5.44772 15 6V8.5C15 9.05228 15.4477 9.5 16 9.5C16.5523 9.5 17 9.05228 17 8.5V6Z" fill="black"/><path d="M10.4285 6.62863C10.2234 6.11584 9.64141 5.86641 9.12863 6.07152C8.61584 6.27662 8.36641 6.85859 8.57152 7.37137L9.57146 9.87137C9.77657 10.3842 10.3585 10.6336 10.8713 10.4285C11.3841 10.2234 11.6335 9.64141 11.4284 9.12863L10.4285 6.62863Z" fill="black"/><path d="M4.70711 9.29289C4.31658 8.90237 3.68342 8.90237 3.29289 9.29289C2.90237 9.68342 2.90237 10.3166 3.29289 10.7071L5.29289 12.7071C5.68342 13.0976 6.31658 13.0976 6.70711 12.7071C7.09763 12.3166 7.09763 11.6834 6.70711 11.2929L4.70711 9.29289Z" fill="black"/><path fill-rule="evenodd" clip-rule="evenodd" d="M12 19C12 16.7909 13.7909 15 16 15C18.2091 15 20 16.7909 20 19C20 21.2091 18.2091 23 16 23C13.7909 23 12 21.2091 12 19ZM16 17C14.8954 17 14 17.8954 14 19C14 20.1046 14.8954 21 16 21C17.1046 21 18 20.1046 18 19C18 17.8954 17.1046 17 16 17Z" fill="black"/><path fill-rule="evenodd" clip-rule="evenodd" d="M4.2069 16.9773C5.91973 14.8397 9.84713 11 16 11C22.1529 11 26.0803 14.8397 27.7931 16.9773C28.7501 18.1717 28.7501 19.8283 27.7931 21.0227C26.0803 23.1603 22.1529 27 16 27C9.84713 27 5.91973 23.1603 4.2069 21.0227C3.24987 19.8283 3.24987 18.1717 4.2069 16.9773ZM16 13C10.7422 13 7.32784 16.2808 5.76768 18.2279C5.39628 18.6915 5.39628 19.3085 5.76768 19.7721C7.32784 21.7192 10.7422 25 16 25C21.2578 25 24.6722 21.7192 26.2323 19.7721C26.6037 19.3085 26.6037 18.6915 26.2323 18.2279C24.6722 16.2808 21.2578 13 16 13Z" fill="black"/><path d="M28.7071 9.29289C28.3166 8.90237 27.6834 8.90237 27.2929 9.29289L25.2929 11.2929C24.9024 11.6834 24.9024 12.3166 25.2929 12.7071C25.6834 13.0976 26.3166 13.0976 26.7071 12.7071L28.7071 10.7071C29.0976 10.3166 29.0976 9.68342 28.7071 9.29289Z" fill="black"/><path d="M22.8714 6.07152C22.3586 5.86641 21.7766 6.11584 21.5715 6.62863L20.5716 9.12863C20.3665 9.64141 20.6159 10.2234 21.1287 10.4285C21.6415 10.6336 22.2234 10.3842 22.4285 9.87137L23.4285 7.37137C23.6336 6.85859 23.3842 6.27662 22.8714 6.07152Z" fill="black"/><text x="0" y="47" fill="#000000" font-size="5px" font-weight="bold" font-family="'Helvetica Neue', Helvetica, Arial-Unicode, Arial, Sans-serif">by Ferdinand Partahi Jaya Tambunan</text><text x="0" y="52" fill="#000000" font-size="5px" font-weight="bold" font-family="'Helvetica Neue', Helvetica, Arial-Unicode, Arial, Sans-serif">from the Noun Project</text></svg>